<?xml version="1.0" standalone="no"?>
<!DOCTYPE svg PUBLIC "-//W3C//DTD SVG 1.1//EN" "http://www.w3.org/Graphics/SVG/1.1/DTD/svg11.dtd">
<svg width="880px" height="1870px" version="1.1" xmlns="http://www.w3.org/2000/svg">

<!-- This file is a systemd-analyze SVG file. It is best rendered in a   -->
<!-- browser such as Chrome, Chromium or Firefox. Other applications     -->
<!-- that render these files properly but much slower are ImageMagick,   -->
<!-- gimp, inkscape, etc. To display the files on your system, just      -->
<!-- point your browser to this file.                                    -->

<!-- This plot was generated by systemd-analyze version 241              -->

<defs>
  <style type="text/css">
    <![CDATA[
      rect       { stroke-width: 1; stroke-opacity: 0; }
      rect.background   { fill: rgb(255,255,255); }
      rect.activating   { fill: rgb(255,0,0); fill-opacity: 0.7; }
      rect.active       { fill: rgb(200,150,150); fill-opacity: 0.7; }
      rect.deactivating { fill: rgb(150,100,100); fill-opacity: 0.7; }
      rect.kernel       { fill: rgb(150,150,150); fill-opacity: 0.7; }
      rect.initrd       { fill: rgb(150,150,150); fill-opacity: 0.7; }
      rect.firmware     { fill: rgb(150,150,150); fill-opacity: 0.7; }
      rect.loader       { fill: rgb(150,150,150); fill-opacity: 0.7; }
      rect.userspace    { fill: rgb(150,150,150); fill-opacity: 0.7; }
      rect.security     { fill: rgb(144,238,144); fill-opacity: 0.7; }
      rect.generators   { fill: rgb(102,204,255); fill-opacity: 0.7; }
      rect.unitsload    { fill: rgb( 82,184,255); fill-opacity: 0.7; }
      rect.box   { fill: rgb(240,240,240); stroke: rgb(192,192,192); }
      line       { stroke: rgb(64,64,64); stroke-width: 1; }
//    line.sec1  { }
      line.sec5  { stroke-width: 2; }
      line.sec01 { stroke: rgb(224,224,224); stroke-width: 1; }
      text       { font-family: Verdana, Helvetica; font-size: 14px; }
      text.left  { font-family: Verdana, Helvetica; font-size: 14px; text-anchor: start; }
      text.right { font-family: Verdana, Helvetica; font-size: 14px; text-anchor: end; }
      text.sec   { font-size: 10px; }
    ]]>
   </style>
</defs>

<rect class="background" width="100%" height="100%" />
<text x="20" y="50">Startup finished in 5.235s (userspace) 
graphical.target reached after 2w 3d 12h 36min 56.498s in userspace</text><text x="20" y="30">Debian GNU/Linux 10 (buster) tester (Linux 5.4.203-1-pve #1 SMP PVE 5.4.203-1 (Fri, 26 Aug 2022 14:43:35 +0200)) x86-64 lxc</text><g transform="translate(20.000,100)">
<rect class="box" x="0" y="0" width="523.510" height="1620.000" />
  <line class="sec5" x1="0.000" y1="0" x2="0.000" y2="1620.000" />
  <text class="sec" x="0.000" y="-5.000" >0.0s</text>
  <line class="sec01" x1="10.000" y1="0" x2="10.000" y2="1620.000" />
  <line class="sec01" x1="20.000" y1="0" x2="20.000" y2="1620.000" />
  <line class="sec01" x1="30.000" y1="0" x2="30.000" y2="1620.000" />
  <line class="sec01" x1="40.000" y1="0" x2="40.000" y2="1620.000" />
  <line class="sec01" x1="50.000" y1="0" x2="50.000" y2="1620.000" />
  <line class="sec01" x1="60.000" y1="0" x2="60.000" y2="1620.000" />
  <line class="sec01" x1="70.000" y1="0" x2="70.000" y2="1620.000" />
  <line class="sec01" x1="80.000" y1="0" x2="80.000" y2="1620.000" />
  <line class="sec01" x1="90.000" y1="0" x2="90.000" y2="1620.000" />
  <line class="sec1" x1="100.000" y1="0" x2="100.000" y2="1620.000" />
  <text class="sec" x="100.000" y="-5.000" >1.0s</text>
  <line class="sec01" x1="110.000" y1="0" x2="110.000" y2="1620.000" />
  <line class="sec01" x1="120.000" y1="0" x2="120.000" y2="1620.000" />
  <line class="sec01" x1="130.000" y1="0" x2="130.000" y2="1620.000" />
  <line class="sec01" x1="140.000" y1="0" x2="140.000" y2="1620.000" />
  <line class="sec01" x1="150.000" y1="0" x2="150.000" y2="1620.000" />
  <line class="sec01" x1="160.000" y1="0" x2="160.000" y2="1620.000" />
  <line class="sec01" x1="170.000" y1="0" x2="170.000" y2="1620.000" />
  <line class="sec01" x1="180.000" y1="0" x2="180.000" y2="1620.000" />
  <line class="sec01" x1="190.000" y1="0" x2="190.000" y2="1620.000" />
  <line class="sec1" x1="200.000" y1="0" x2="200.000" y2="1620.000" />
  <text class="sec" x="200.000" y="-5.000" >2.0s</text>
  <line class="sec01" x1="210.000" y1="0" x2="210.000" y2="1620.000" />
  <line class="sec01" x1="220.000" y1="0" x2="220.000" y2="1620.000" />
  <line class="sec01" x1="230.000" y1="0" x2="230.000" y2="1620.000" />
  <line class="sec01" x1="240.000" y1="0" x2="240.000" y2="1620.000" />
  <line class="sec01" x1="250.000" y1="0" x2="250.000" y2="1620.000" />
  <line class="sec01" x1="260.000" y1="0" x2="260.000" y2="1620.000" />
  <line class="sec01" x1="270.000" y1="0" x2="270.000" y2="1620.000" />
  <line class="sec01" x1="280.000" y1="0" x2="280.000" y2="1620.000" />
  <line class="sec01" x1="290.000" y1="0" x2="290.000" y2="1620.000" />
  <line class="sec1" x1="300.000" y1="0" x2="300.000" y2="1620.000" />
  <text class="sec" x="300.000" y="-5.000" >3.0s</text>
  <line class="sec01" x1="310.000" y1="0" x2="310.000" y2="1620.000" />
  <line class="sec01" x1="320.000" y1="0" x2="320.000" y2="1620.000" />
  <line class="sec01" x1="330.000" y1="0" x2="330.000" y2="1620.000" />
  <line class="sec01" x1="340.000" y1="0" x2="340.000" y2="1620.000" />
  <line class="sec01" x1="350.000" y1="0" x2="350.000" y2="1620.000" />
  <line class="sec01" x1="360.000" y1="0" x2="360.000" y2="1620.000" />
  <line class="sec01" x1="370.000" y1="0" x2="370.000" y2="1620.000" />
  <line class="sec01" x1="380.000" y1="0" x2="380.000" y2="1620.000" />
  <line class="sec01" x1="390.000" y1="0" x2="390.000" y2="1620.000" />
  <line class="sec1" x1="400.000" y1="0" x2="400.000" y2="1620.000" />
  <text class="sec" x="400.000" y="-5.000" >4.0s</text>
  <line class="sec01" x1="410.000" y1="0" x2="410.000" y2="1620.000" />
  <line class="sec01" x1="420.000" y1="0" x2="420.000" y2="1620.000" />
  <line class="sec01" x1="430.000" y1="0" x2="430.000" y2="1620.000" />
  <line class="sec01" x1="440.000" y1="0" x2="440.000" y2="1620.000" />
  <line class="sec01" x1="450.000" y1="0" x2="450.000" y2="1620.000" />
  <line class="sec01" x1="460.000" y1="0" x2="460.000" y2="1620.000" />
  <line class="sec01" x1="470.000" y1="0" x2="470.000" y2="1620.000" />
  <line class="sec01" x1="480.000" y1="0" x2="480.000" y2="1620.000" />
  <line class="sec01" x1="490.000" y1="0" x2="490.000" y2="1620.000" />
  <line class="sec5" x1="500.000" y1="0" x2="500.000" y2="1620.000" />
  <text class="sec" x="500.000" y="-5.000" >5.0s</text>
  <line class="sec01" x1="510.000" y1="0" x2="510.000" y2="1620.000" />
  <line class="sec01" x1="520.000" y1="0" x2="520.000" y2="1620.000" />
  <rect class="active" x="0.000" y="0.000" width="523.510" height="19.000" />
  <rect class="generators" x="21.874" y="0.000" width="82.119" height="19.000" />
  <rect class="unitsload" x="104.061" y="0.000" width="206.110" height="19.000" />
  <text class="left" x="5.000" y="14.000">systemd</text>
  <rect class="activating" x="310.810" y="20.000" width="0.000" height="19.000" />
  <rect class="active" x="310.810" y="20.000" width="212.699" height="19.000" />
  <rect class="deactivating" x="523.510" y="20.000" width="0.000" height="19.000" />
  <text class="left" x="315.810" y="34.000">proc-sysrq\x2dtrigger.mount</text>
  <rect class="activating" x="310.813" y="40.000" width="0.000" height="19.000" />
  <rect class="active" x="310.813" y="40.000" width="212.697" height="19.000" />
  <rect class="deactivating" x="523.510" y="40.000" width="0.000" height="19.000" />
  <text class="left" x="315.813" y="54.000">-.mount</text>
  <rect class="activating" x="310.813" y="60.000" width="0.000" height="19.000" />
  <rect class="active" x="310.813" y="60.000" width="212.697" height="19.000" />
  <rect class="deactivating" x="523.510" y="60.000" width="0.000" height="19.000" />
  <text class="left" x="315.813" y="74.000">proc-meminfo.mount</text>
  <rect class="activating" x="310.813" y="80.000" width="0.000" height="19.000" />
  <rect class="active" x="310.813" y="80.000" width="212.697" height="19.000" />
  <rect class="deactivating" x="523.510" y="80.000" width="0.000" height="19.000" />
  <text class="left" x="315.813" y="94.000">dev-random.mount</text>
  <rect class="activating" x="310.813" y="100.000" width="0.000" height="19.000" />
  <rect class="active" x="310.813" y="100.000" width="212.697" height="19.000" />
  <rect class="deactivating" x="523.510" y="100.000" width="0.000" height="19.000" />
  <text class="left" x="315.813" y="114.000">dev-tty.mount</text>
  <rect class="activating" x="310.813" y="120.000" width="0.000" height="19.000" />
  <rect class="active" x="310.813" y="120.000" width="212.696" height="19.000" />
  <rect class="deactivating" x="523.510" y="120.000" width="0.000" height="19.000" />
  <text class="left" x="315.813" y="134.000">dev-tty2.mount</text>
  <rect class="activating" x="310.814" y="140.000" width="0.000" height="19.000" />
  <rect class="active" x="310.814" y="140.000" width="212.696" height="19.000" />
  <rect class="deactivating" x="523.510" y="140.000" width="0.000" height="19.000" />
  <text class="left" x="315.814" y="154.000">dev-ptmx.mount</text>
  <rect class="activating" x="310.814" y="160.000" width="0.000" height="19.000" />
  <rect class="active" x="310.814" y="160.000" width="212.696" height="19.000" />
  <rect class="deactivating" x="523.510" y="160.000" width="0.000" height="19.000" />
  <text class="left" x="315.814" y="174.000">dev-urandom.mount</text>
  <rect class="activating" x="310.814" y="180.000" width="0.000" height="19.000" />
  <rect class="active" x="310.814" y="180.000" width="212.696" height="19.000" />
  <rect class="deactivating" x="523.510" y="180.000" width="0.000" height="19.000" />
  <text class="left" x="315.814" y="194.000">proc-sys-net.mount</text>
  <rect class="activating" x="310.814" y="200.000" width="0.000" height="19.000" />
  <rect class="active" x="310.814" y="200.000" width="212.696" height="19.000" />
  <rect class="deactivating" x="523.510" y="200.000" width="0.000" height="19.000" />
  <text class="left" x="315.814" y="214.000">proc-stat.mount</text>
  <rect class="activating" x="310.814" y="220.000" width="0.000" height="19.000" />
  <rect class="active" x="310.814" y="220.000" width="212.696" height="19.000" />
  <rect class="deactivating" x="523.510" y="220.000" width="0.000" height="19.000" />
  <text class="left" x="315.814" y="234.000">proc-swaps.mount</text>
  <rect class="activating" x="310.815" y="240.000" width="0.000" height="19.000" />
  <rect class="active" x="310.815" y="240.000" width="212.695" height="19.000" />
  <rect class="deactivating" x="523.510" y="240.000" width="0.000" height="19.000" />
  <text class="left" x="315.815" y="254.000">system.slice</text>
  <rect class="activating" x="310.815" y="260.000" width="0.000" height="19.000" />
  <rect class="active" x="310.815" y="260.000" width="212.695" height="19.000" />
  <rect class="deactivating" x="523.510" y="260.000" width="0.000" height="19.000" />
  <text class="left" x="315.815" y="274.000">proc-cpuinfo.mount</text>
  <rect class="activating" x="310.815" y="280.000" width="0.000" height="19.000" />
  <rect class="active" x="310.815" y="280.000" width="212.695" height="19.000" />
  <rect class="deactivating" x="523.510" y="280.000" width="0.000" height="19.000" />
  <text class="left" x="315.815" y="294.000">dev-tty1.mount</text>
  <rect class="activating" x="310.815" y="300.000" width="0.000" height="19.000" />
  <rect class="active" x="310.815" y="300.000" width="212.695" height="19.000" />
  <rect class="deactivating" x="523.510" y="300.000" width="0.000" height="19.000" />
  <text class="left" x="315.815" y="314.000">init.scope</text>
  <rect class="activating" x="310.815" y="320.000" width="0.000" height="19.000" />
  <rect class="active" x="310.815" y="320.000" width="212.695" height="19.000" />
  <rect class="deactivating" x="523.510" y="320.000" width="0.000" height="19.000" />
  <text class="left" x="315.815" y="334.000">dev-zero.mount</text>
  <rect class="activating" x="310.815" y="340.000" width="0.000" height="19.000" />
  <rect class="active" x="310.815" y="340.000" width="212.694" height="19.000" />
  <rect class="deactivating" x="523.510" y="340.000" width="0.000" height="19.000" />
  <text class="left" x="315.815" y="354.000">sys-fs-fuse-connections.mount</text>
  <rect class="activating" x="310.816" y="360.000" width="0.000" height="19.000" />
  <rect class="active" x="310.816" y="360.000" width="212.694" height="19.000" />
  <rect class="deactivating" x="523.510" y="360.000" width="0.000" height="19.000" />
  <text class="left" x="315.816" y="374.000">dev-null.mount</text>
  <rect class="activating" x="310.816" y="380.000" width="0.000" height="19.000" />
  <rect class="active" x="310.816" y="380.000" width="212.694" height="19.000" />
  <rect class="deactivating" x="523.510" y="380.000" width="0.000" height="19.000" />
  <text class="left" x="315.816" y="394.000">sys-devices-system-cpu-online.mount</text>
  <rect class="activating" x="310.816" y="400.000" width="0.000" height="19.000" />
  <rect class="active" x="310.816" y="400.000" width="212.694" height="19.000" />
  <rect class="deactivating" x="523.510" y="400.000" width="0.000" height="19.000" />
  <text class="left" x="315.816" y="414.000">proc-loadavg.mount</text>
  <rect class="activating" x="310.816" y="420.000" width="0.000" height="19.000" />
  <rect class="active" x="310.816" y="420.000" width="212.694" height="19.000" />
  <rect class="deactivating" x="523.510" y="420.000" width="0.000" height="19.000" />
  <text class="left" x="315.816" y="434.000">proc-uptime.mount</text>
  <rect class="activating" x="310.816" y="440.000" width="0.000" height="19.000" />
  <rect class="active" x="310.816" y="440.000" width="212.694" height="19.000" />
  <rect class="deactivating" x="523.510" y="440.000" width="0.000" height="19.000" />
  <text class="left" x="315.816" y="454.000">proc-diskstats.mount</text>
  <rect class="activating" x="310.816" y="460.000" width="0.000" height="19.000" />
  <rect class="active" x="310.816" y="460.000" width="212.693" height="19.000" />
  <rect class="deactivating" x="523.510" y="460.000" width="0.000" height="19.000" />
  <text class="left" x="315.816" y="474.000">proc-sys-kernel-random-boot_id.mount</text>
  <rect class="activating" x="310.817" y="480.000" width="0.000" height="19.000" />
  <rect class="active" x="310.817" y="480.000" width="212.693" height="19.000" />
  <rect class="deactivating" x="523.510" y="480.000" width="0.000" height="19.000" />
  <text class="left" x="315.817" y="494.000">dev-full.mount</text>
  <rect class="activating" x="310.817" y="500.000" width="0.000" height="19.000" />
  <rect class="active" x="310.817" y="500.000" width="212.693" height="19.000" />
  <rect class="deactivating" x="523.510" y="500.000" width="0.000" height="19.000" />
  <text class="left" x="315.817" y="514.000">-.slice</text>
  <rect class="activating" x="310.817" y="520.000" width="0.000" height="19.000" />
  <rect class="active" x="310.817" y="520.000" width="212.693" height="19.000" />
  <rect class="deactivating" x="523.510" y="520.000" width="0.000" height="19.000" />
  <text class="left" x="315.817" y="534.000">sys-devices-virtual-net.mount</text>
  <rect class="activating" x="310.917" y="540.000" width="0.000" height="19.000" />
  <rect class="active" x="310.917" y="540.000" width="212.592" height="19.000" />
  <rect class="deactivating" x="523.510" y="540.000" width="0.000" height="19.000" />
  <text class="left" x="315.917" y="554.000">systemd-journald-dev-log.socket</text>
  <rect class="activating" x="310.973" y="560.000" width="0.000" height="19.000" />
  <rect class="active" x="310.973" y="560.000" width="212.537" height="19.000" />
  <rect class="deactivating" x="523.510" y="560.000" width="0.000" height="19.000" />
  <text class="left" x="315.973" y="574.000">syslog.socket</text>
  <rect class="activating" x="311.075" y="580.000" width="0.000" height="19.000" />
  <rect class="active" x="311.075" y="580.000" width="212.435" height="19.000" />
  <rect class="deactivating" x="523.510" y="580.000" width="0.000" height="19.000" />
  <text class="left" x="316.075" y="594.000">system-container\x2dgetty.slice</text>
  <rect class="activating" x="311.084" y="600.000" width="0.000" height="19.000" />
  <rect class="active" x="311.084" y="600.000" width="212.425" height="19.000" />
  <rect class="deactivating" x="523.510" y="600.000" width="0.000" height="19.000" />
  <text class="left" x="316.084" y="614.000">systemd-ask-password-wall.path</text>
  <rect class="activating" x="311.123" y="620.000" width="0.000" height="19.000" />
  <rect class="active" x="311.123" y="620.000" width="212.387" height="19.000" />
  <rect class="deactivating" x="523.510" y="620.000" width="0.000" height="19.000" />
  <text class="left" x="316.123" y="634.000">user.slice</text>
  <rect class="activating" x="311.127" y="640.000" width="0.000" height="19.000" />
  <rect class="active" x="311.127" y="640.000" width="212.383" height="19.000" />
  <rect class="deactivating" x="523.510" y="640.000" width="0.000" height="19.000" />
  <text class="left" x="316.127" y="654.000">slices.target</text>
  <rect class="activating" x="311.136" y="660.000" width="0.000" height="19.000" />
  <rect class="active" x="311.136" y="660.000" width="212.374" height="19.000" />
  <rect class="deactivating" x="523.510" y="660.000" width="0.000" height="19.000" />
  <text class="left" x="316.136" y="674.000">systemd-initctl.socket</text>
  <rect class="activating" x="311.174" y="680.000" width="0.000" height="19.000" />
  <rect class="active" x="311.174" y="680.000" width="212.335" height="19.000" />
  <rect class="deactivating" x="523.510" y="680.000" width="0.000" height="19.000" />
  <text class="left" x="316.174" y="694.000">system-postfix.slice</text>
  <rect class="activating" x="311.178" y="700.000" width="0.000" height="19.000" />
  <rect class="active" x="311.178" y="700.000" width="212.332" height="19.000" />
  <rect class="deactivating" x="523.510" y="700.000" width="0.000" height="19.000" />
  <text class="left" x="316.178" y="714.000">remote-fs.target</text>
  <rect class="activating" x="311.193" y="720.000" width="0.000" height="19.000" />
  <rect class="active" x="311.193" y="720.000" width="212.317" height="19.000" />
  <rect class="deactivating" x="523.510" y="720.000" width="0.000" height="19.000" />
  <text class="left" x="316.193" y="734.000">systemd-journald.socket</text>
  <rect class="activating" x="311.434" y="740.000" width="23.879" height="19.000" />
  <rect class="active" x="335.313" y="740.000" width="188.197" height="19.000" />
  <rect class="deactivating" x="523.510" y="740.000" width="0.000" height="19.000" />
  <text class="left" x="316.434" y="754.000">systemd-journald.service (238ms)</text>
  <rect class="activating" x="311.563" y="760.000" width="23.962" height="19.000" />
  <rect class="active" x="335.525" y="760.000" width="187.984" height="19.000" />
  <rect class="deactivating" x="523.510" y="760.000" width="0.000" height="19.000" />
  <text class="left" x="316.563" y="774.000">systemd-remount-fs.service (239ms)</text>
  <rect class="activating" x="334.511" y="780.000" width="18.547" height="19.000" />
  <rect class="active" x="353.058" y="780.000" width="170.452" height="19.000" />
  <rect class="deactivating" x="523.510" y="780.000" width="0.000" height="19.000" />
  <text class="left" x="339.511" y="794.000">systemd-modules-load.service (185ms)</text>
  <rect class="activating" x="335.015" y="800.000" width="25.435" height="19.000" />
  <rect class="active" x="360.450" y="800.000" width="163.060" height="19.000" />
  <rect class="deactivating" x="523.510" y="800.000" width="0.000" height="19.000" />
  <text class="left" x="340.015" y="814.000">ifupdown-pre.service (254ms)</text>
  <rect class="activating" x="335.134" y="820.000" width="0.485" height="19.000" />
  <rect class="active" x="335.619" y="820.000" width="187.891" height="19.000" />
  <rect class="deactivating" x="523.510" y="820.000" width="0.000" height="19.000" />
  <text class="left" x="340.134" y="834.000">dev-mqueue.mount (4ms)</text>
  <rect class="activating" x="335.144" y="840.000" width="0.000" height="19.000" />
  <rect class="active" x="335.144" y="840.000" width="188.365" height="19.000" />
  <rect class="deactivating" x="523.510" y="840.000" width="0.000" height="19.000" />
  <text class="left" x="340.144" y="854.000">swap.target</text>
  <rect class="activating" x="335.159" y="860.000" width="0.000" height="19.000" />
  <rect class="active" x="335.159" y="860.000" width="188.351" height="19.000" />
  <rect class="deactivating" x="523.510" y="860.000" width="0.000" height="19.000" />
  <text class="left" x="340.159" y="874.000">systemd-ask-password-console.path</text>
  <rect class="activating" x="335.163" y="880.000" width="0.000" height="19.000" />
  <rect class="active" x="335.163" y="880.000" width="188.347" height="19.000" />
  <rect class="deactivating" x="523.510" y="880.000" width="0.000" height="19.000" />
  <text class="left" x="340.163" y="894.000">paths.target</text>
  <rect class="activating" x="335.166" y="900.000" width="0.000" height="19.000" />
  <rect class="active" x="335.166" y="900.000" width="188.343" height="19.000" />
  <rect class="deactivating" x="523.510" y="900.000" width="0.000" height="19.000" />
  <text class="left" x="340.166" y="914.000">cryptsetup.target</text>
  <rect class="activating" x="346.043" y="920.000" width="27.452" height="19.000" />
  <rect class="active" x="373.494" y="920.000" width="150.016" height="19.000" />
  <rect class="deactivating" x="523.510" y="920.000" width="0.000" height="19.000" />
  <text class="left" x="351.043" y="934.000">systemd-sysusers.service (274ms)</text>
  <rect class="activating" x="346.174" y="940.000" width="14.729" height="19.000" />
  <rect class="active" x="360.903" y="940.000" width="162.607" height="19.000" />
  <rect class="deactivating" x="523.510" y="940.000" width="0.000" height="19.000" />
  <text class="left" x="351.174" y="954.000">systemd-journal-flush.service (147ms)</text>
  <rect class="activating" x="353.365" y="960.000" width="6.008" height="19.000" />
  <rect class="active" x="359.373" y="960.000" width="164.137" height="19.000" />
  <rect class="deactivating" x="523.510" y="960.000" width="0.000" height="19.000" />
  <text class="left" x="358.365" y="974.000">systemd-sysctl.service (60ms)</text>
  <rect class="activating" x="373.638" y="980.000" width="11.204" height="19.000" />
  <rect class="active" x="384.841" y="980.000" width="138.668" height="19.000" />
  <rect class="deactivating" x="523.510" y="980.000" width="0.000" height="19.000" />
  <text class="left" x="378.638" y="994.000">systemd-tmpfiles-setup-dev.service (112ms)</text>
  <rect class="activating" x="384.866" y="1000.000" width="0.000" height="19.000" />
  <rect class="active" x="384.866" y="1000.000" width="138.644" height="19.000" />
  <rect class="deactivating" x="523.510" y="1000.000" width="0.000" height="19.000" />
  <text class="left" x="389.866" y="1014.000">local-fs-pre.target</text>
  <rect class="activating" x="384.871" y="1020.000" width="0.000" height="19.000" />
  <rect class="active" x="384.871" y="1020.000" width="138.639" height="19.000" />
  <rect class="deactivating" x="523.510" y="1020.000" width="0.000" height="19.000" />
  <text class="left" x="389.871" y="1034.000">local-fs.target</text>
  <rect class="activating" x="384.999" y="1040.000" width="39.526" height="19.000" />
  <rect class="active" x="424.524" y="1040.000" width="98.985" height="19.000" />
  <rect class="deactivating" x="523.510" y="1040.000" width="0.000" height="19.000" />
  <text class="left" x="389.999" y="1054.000">networking.service (395ms)</text>
  <rect class="activating" x="385.115" y="1060.000" width="9.128" height="19.000" />
  <rect class="active" x="394.243" y="1060.000" width="129.267" height="19.000" />
  <rect class="deactivating" x="523.510" y="1060.000" width="0.000" height="19.000" />
  <text class="left" x="390.115" y="1074.000">systemd-tmpfiles-setup.service (91ms)</text>
  <rect class="activating" x="394.274" y="1080.000" width="0.000" height="19.000" />
  <rect class="active" x="394.274" y="1080.000" width="129.236" height="19.000" />
  <rect class="deactivating" x="523.510" y="1080.000" width="0.000" height="19.000" />
  <text class="left" x="399.274" y="1094.000">time-sync.target</text>
  <rect class="activating" x="394.441" y="1100.000" width="3.242" height="19.000" />
  <rect class="active" x="397.683" y="1100.000" width="125.827" height="19.000" />
  <rect class="deactivating" x="523.510" y="1100.000" width="0.000" height="19.000" />
  <text class="left" x="399.441" y="1114.000">systemd-update-utmp.service (32ms)</text>
  <rect class="activating" x="397.701" y="1120.000" width="0.000" height="19.000" />
  <rect class="active" x="397.701" y="1120.000" width="125.809" height="19.000" />
  <rect class="deactivating" x="523.510" y="1120.000" width="0.000" height="19.000" />
  <text class="left" x="402.701" y="1134.000">sysinit.target</text>
  <rect class="activating" x="397.709" y="1140.000" width="0.000" height="19.000" />
  <rect class="active" x="397.709" y="1140.000" width="125.801" height="19.000" />
  <rect class="deactivating" x="523.510" y="1140.000" width="0.000" height="19.000" />
  <text class="left" x="402.709" y="1154.000">systemd-tmpfiles-clean.timer</text>
  <rect class="activating" x="398.811" y="1160.000" width="0.000" height="19.000" />
  <rect class="active" x="398.811" y="1160.000" width="124.699" height="19.000" />
  <rect class="deactivating" x="523.510" y="1160.000" width="0.000" height="19.000" />
  <text class="left" x="403.811" y="1174.000">logrotate.timer</text>
  <rect class="activating" x="398.833" y="1180.000" width="0.000" height="19.000" />
  <rect class="active" x="398.833" y="1180.000" width="124.677" height="19.000" />
  <rect class="deactivating" x="523.510" y="1180.000" width="0.000" height="19.000" />
  <text class="left" x="403.833" y="1194.000">man-db.timer</text>
  <rect class="activating" x="398.882" y="1200.000" width="0.000" height="19.000" />
  <rect class="active" x="398.882" y="1200.000" width="124.628" height="19.000" />
  <rect class="deactivating" x="523.510" y="1200.000" width="0.000" height="19.000" />
  <text class="left" x="403.882" y="1214.000">dbus.socket</text>
  <rect class="activating" x="398.888" y="1220.000" width="0.000" height="19.000" />
  <rect class="active" x="398.888" y="1220.000" width="124.622" height="19.000" />
  <rect class="deactivating" x="523.510" y="1220.000" width="0.000" height="19.000" />
  <text class="left" x="403.888" y="1234.000">sockets.target</text>
  <rect class="activating" x="398.892" y="1240.000" width="0.000" height="19.000" />
  <rect class="active" x="398.892" y="1240.000" width="124.618" height="19.000" />
  <rect class="deactivating" x="523.510" y="1240.000" width="0.000" height="19.000" />
  <text class="left" x="403.892" y="1254.000">basic.target</text>
  <rect class="activating" x="399.079" y="1260.000" width="25.366" height="19.000" />
  <rect class="active" x="424.445" y="1260.000" width="99.065" height="19.000" />
  <rect class="deactivating" x="523.510" y="1260.000" width="0.000" height="19.000" />
  <text class="left" x="404.079" y="1274.000">rsyslog.service (253ms)</text>
  <rect class="activating" x="399.236" y="1280.000" width="0.000" height="19.000" />
  <rect class="active" x="399.236" y="1280.000" width="124.274" height="19.000" />
  <rect class="deactivating" x="523.510" y="1280.000" width="0.000" height="19.000" />
  <text class="left" x="404.236" y="1294.000">cron.service</text>
  <rect class="activating" x="399.380" y="1300.000" width="25.012" height="19.000" />
  <rect class="active" x="424.392" y="1300.000" width="99.117" height="19.000" />
  <rect class="deactivating" x="523.510" y="1300.000" width="0.000" height="19.000" />
  <text class="left" x="404.380" y="1314.000">systemd-logind.service (250ms)</text>
  <rect class="activating" x="399.528" y="1320.000" width="0.000" height="19.000" />
  <rect class="active" x="399.528" y="1320.000" width="123.982" height="19.000" />
  <rect class="deactivating" x="523.510" y="1320.000" width="0.000" height="19.000" />
  <text class="left" x="404.528" y="1334.000">dbus.service</text>
  <rect class="activating" x="399.743" y="1340.000" width="0.000" height="19.000" />
  <rect class="active" x="399.743" y="1340.000" width="123.767" height="19.000" />
  <rect class="deactivating" x="523.510" y="1340.000" width="0.000" height="19.000" />
  <text class="left" x="404.743" y="1354.000">apt-daily.timer</text>
  <rect class="activating" x="399.758" y="1360.000" width="0.000" height="19.000" />
  <rect class="active" x="399.758" y="1360.000" width="123.752" height="19.000" />
  <rect class="deactivating" x="523.510" y="1360.000" width="0.000" height="19.000" />
  <text class="left" x="404.758" y="1374.000">apt-daily-upgrade.timer</text>
  <rect class="activating" x="399.764" y="1380.000" width="0.000" height="19.000" />
  <rect class="active" x="399.764" y="1380.000" width="123.746" height="19.000" />
  <rect class="deactivating" x="523.510" y="1380.000" width="0.000" height="19.000" />
  <text class="left" x="404.764" y="1394.000">timers.target</text>
  <rect class="activating" x="424.677" y="1400.000" width="0.000" height="19.000" />
  <rect class="active" x="424.677" y="1400.000" width="98.832" height="19.000" />
  <rect class="deactivating" x="523.510" y="1400.000" width="0.000" height="19.000" />
  <text class="right" x="419.677" y="1414.000">network.target</text>
  <rect class="activating" x="426.010" y="1420.000" width="45.520" height="19.000" />
  <rect class="active" x="471.530" y="1420.000" width="51.980" height="19.000" />
  <rect class="deactivating" x="523.510" y="1420.000" width="0.000" height="19.000" />
  <text class="right" x="421.010" y="1434.000">ssh.service (455ms)</text>
  <rect class="activating" x="426.175" y="1440.000" width="2.036" height="19.000" />
  <rect class="active" x="428.211" y="1440.000" width="95.299" height="19.000" />
  <rect class="deactivating" x="523.510" y="1440.000" width="0.000" height="19.000" />
  <text class="right" x="421.175" y="1454.000">systemd-user-sessions.service (20ms)</text>
  <rect class="activating" x="426.203" y="1460.000" width="0.000" height="19.000" />
  <rect class="active" x="426.203" y="1460.000" width="97.306" height="19.000" />
  <rect class="deactivating" x="523.510" y="1460.000" width="0.000" height="19.000" />
  <text class="right" x="421.203" y="1474.000">network-online.target</text>
  <rect class="activating" x="426.387" y="1480.000" width="92.007" height="19.000" />
  <rect class="active" x="518.394" y="1480.000" width="5.116" height="19.000" />
  <rect class="deactivating" x="523.510" y="1480.000" width="0.000" height="19.000" />
  <text class="right" x="421.387" y="1494.000">postfix@-.service (920ms)</text>
  <rect class="activating" x="428.489" y="1500.000" width="0.000" height="19.000" />
  <rect class="active" x="428.489" y="1500.000" width="95.021" height="19.000" />
  <rect class="deactivating" x="523.510" y="1500.000" width="0.000" height="19.000" />
  <text class="right" x="423.489" y="1514.000">container-getty@2.service</text>
  <rect class="activating" x="428.688" y="1520.000" width="0.000" height="19.000" />
  <rect class="active" x="428.688" y="1520.000" width="94.821" height="19.000" />
  <rect class="deactivating" x="523.510" y="1520.000" width="0.000" height="19.000" />
  <text class="right" x="423.688" y="1534.000">container-getty@1.service</text>
  <rect class="activating" x="428.909" y="1540.000" width="0.000" height="19.000" />
  <rect class="active" x="428.909" y="1540.000" width="94.601" height="19.000" />
  <rect class="deactivating" x="523.510" y="1540.000" width="0.000" height="19.000" />
  <text class="right" x="423.909" y="1554.000">console-getty.service</text>
  <rect class="activating" x="429.021" y="1560.000" width="0.000" height="19.000" />
  <rect class="active" x="429.021" y="1560.000" width="94.489" height="19.000" />
  <rect class="deactivating" x="523.510" y="1560.000" width="0.000" height="19.000" />
  <text class="right" x="424.021" y="1574.000">getty.target</text>
  <rect class="activating" x="518.656" y="1580.000" width="2.689" height="19.000" />
  <rect class="active" x="521.345" y="1580.000" width="2.165" height="19.000" />
  <rect class="deactivating" x="523.510" y="1580.000" width="0.000" height="19.000" />
  <text class="right" x="513.656" y="1594.000">postfix.service (26ms)</text>
  <rect class="activating" x="521.493" y="1600.000" width="0.000" height="19.000" />
  <rect class="active" x="521.493" y="1600.000" width="2.017" height="19.000" />
  <rect class="deactivating" x="523.510" y="1600.000" width="0.000" height="19.000" />
  <text class="right" x="516.493" y="1614.000">multi-user.target</text>
</g>
<g transform="translate(20,100)">
  <rect class="activating" x="0.000" y="1640.000" width="30.000" height="19.000" />
  <text class="left" x="45.000" y="1654.000">Activating</text>
  <rect class="active" x="0.000" y="1660.000" width="30.000" height="19.000" />
  <text class="left" x="45.000" y="1674.000">Active</text>
  <rect class="deactivating" x="0.000" y="1680.000" width="30.000" height="19.000" />
  <text class="left" x="45.000" y="1694.000">Deactivating</text>
  <rect class="generators" x="0.000" y="1700.000" width="30.000" height="19.000" />
  <text class="left" x="45.000" y="1714.000">Generators</text>
  <rect class="unitsload" x="0.000" y="1720.000" width="30.000" height="19.000" />
  <text class="left" x="45.000" y="1734.000">Loading unit files</text>
</g>

</svg>
