<?xml version="1.0" encoding="UTF-8" standalone="no"?>
<!DOCTYPE svg PUBLIC "-//W3C//DTD SVG 1.1//EN"
 "http://www.w3.org/Graphics/SVG/1.1/DTD/svg11.dtd">
<!-- Generated by graphviz version 2.40.1 (20161225.0304)
 -->
<!-- Title: systemd Pages: 1 -->
<svg width="1935pt" height="548pt"
 viewBox="0.00 0.00 1935.44 548.00" xmlns="http://www.w3.org/2000/svg" xmlns:xlink="http://www.w3.org/1999/xlink">
<g id="graph0" class="graph" transform="scale(1 1) rotate(0) translate(4 544)">
<title>systemd</title>
<polygon fill="#ffffff" stroke="transparent" points="-4,4 -4,-544 1931.4435,-544 1931.4435,4 -4,4"/>
<!-- swap.target -->
<g id="node1" class="node">
<title>swap.target</title>
<ellipse fill="none" stroke="#000000" cx="1436" cy="-522" rx="51.1914" ry="18"/>
<text text-anchor="middle" x="1436" y="-518.3" font-family="Times,serif" font-size="14.00" fill="#000000">swap.target</text>
</g>
<!-- shutdown.target -->
<g id="node2" class="node">
<title>shutdown.target</title>
<ellipse fill="none" stroke="#000000" cx="966" cy="-450" rx="67.6881" ry="18"/>
<text text-anchor="middle" x="966" y="-446.3" font-family="Times,serif" font-size="14.00" fill="#000000">shutdown.target</text>
</g>
<!-- swap.target&#45;&gt;shutdown.target -->
<g id="edge1" class="edge">
<title>swap.target&#45;&gt;shutdown.target</title>
<path fill="none" stroke="#ff0000" d="M1388.0759,-515.2911C1303.9213,-502.8832 1129.6902,-476.2389 1033.4383,-461.1027"/>
<polygon fill="#ff0000" stroke="#ff0000" points="1033.9428,-457.6391 1023.5199,-459.5401 1032.8534,-464.5538 1033.9428,-457.6391"/>
</g>
<!-- shutdown.target&#45;&gt;swap.target -->
<g id="edge40" class="edge">
<title>shutdown.target&#45;&gt;swap.target</title>
<path fill="none" stroke="#00ff00" d="M1025.7754,-458.462C1117.2159,-472.0274 1290.3794,-498.5453 1379.6975,-512.6521"/>
<polygon fill="#00ff00" stroke="#00ff00" points="1379.2169,-516.1195 1389.6412,-514.2263 1380.3115,-509.2056 1379.2169,-516.1195"/>
</g>
<!-- network&#45;pre.target -->
<g id="node3" class="node">
<title>network&#45;pre.target</title>
<ellipse fill="none" stroke="#000000" cx="1685" cy="-234" rx="76.0865" ry="18"/>
<text text-anchor="middle" x="1685" y="-230.3" font-family="Times,serif" font-size="14.00" fill="#000000">network&#45;pre.target</text>
</g>
<!-- shutdown.target&#45;&gt;network&#45;pre.target -->
<g id="edge23" class="edge">
<title>shutdown.target&#45;&gt;network&#45;pre.target</title>
<path fill="none" stroke="#00ff00" d="M1033.8503,-449.4185C1210.4751,-447.3356 1674.2183,-437.924 1729,-396 1768.1263,-366.0569 1776.8662,-331.6417 1754,-288 1747.1724,-274.9691 1735.6138,-264.4576 1723.8389,-256.2937"/>
<polygon fill="#00ff00" stroke="#00ff00" points="1725.5882,-253.2568 1715.2914,-250.7616 1721.7848,-259.1334 1725.5882,-253.2568"/>
</g>
<!-- paths.target -->
<g id="node4" class="node">
<title>paths.target</title>
<ellipse fill="none" stroke="#000000" cx="154" cy="-162" rx="51.9908" ry="18"/>
<text text-anchor="middle" x="154" y="-158.3" font-family="Times,serif" font-size="14.00" fill="#000000">paths.target</text>
</g>
<!-- shutdown.target&#45;&gt;paths.target -->
<g id="edge26" class="edge">
<title>shutdown.target&#45;&gt;paths.target</title>
<path fill="none" stroke="#00ff00" d="M898.6025,-448.4156C734.5242,-443.9353 324.4039,-429.2769 273,-396 198.6051,-347.8396 163.9053,-240.9036 154.889,-189.9912"/>
<polygon fill="#00ff00" stroke="#00ff00" points="158.3343,-189.3678 153.3498,-180.0187 151.4162,-190.4356 158.3343,-189.3678"/>
</g>
<!-- multi&#45;user.target -->
<g id="node5" class="node">
<title>multi&#45;user.target</title>
<ellipse fill="none" stroke="#000000" cx="703" cy="-306" rx="69.5877" ry="18"/>
<text text-anchor="middle" x="703" y="-302.3" font-family="Times,serif" font-size="14.00" fill="#000000">multi&#45;user.target</text>
</g>
<!-- shutdown.target&#45;&gt;multi&#45;user.target -->
<g id="edge33" class="edge">
<title>shutdown.target&#45;&gt;multi&#45;user.target</title>
<path fill="none" stroke="#00ff00" d="M902.7618,-443.5016C839.2776,-435.4082 747.5582,-419.6919 722,-396 704.9102,-380.1581 698.1693,-354.0914 697.1011,-334.0776"/>
<polygon fill="#00ff00" stroke="#00ff00" points="700.6006,-333.9491 697.0477,-323.9678 693.6007,-333.9861 700.6006,-333.9491"/>
</g>
<!-- basic.target -->
<g id="node6" class="node">
<title>basic.target</title>
<ellipse fill="none" stroke="#000000" cx="413" cy="-234" rx="51.1914" ry="18"/>
<text text-anchor="middle" x="413" y="-230.3" font-family="Times,serif" font-size="14.00" fill="#000000">basic.target</text>
</g>
<!-- shutdown.target&#45;&gt;basic.target -->
<g id="edge22" class="edge">
<title>shutdown.target&#45;&gt;basic.target</title>
<path fill="none" stroke="#00ff00" d="M898.3551,-449.1483C744.9617,-446.4859 381.5558,-435.9234 345,-396 308.6366,-356.2868 352.5138,-292.3911 384.9389,-257.9102"/>
<polygon fill="#00ff00" stroke="#00ff00" points="387.5794,-260.2157 392.0596,-250.6147 382.57,-255.3262 387.5794,-260.2157"/>
</g>
<!-- rescue.target -->
<g id="node7" class="node">
<title>rescue.target</title>
<ellipse fill="none" stroke="#000000" cx="966" cy="-234" rx="55.7903" ry="18"/>
<text text-anchor="middle" x="966" y="-230.3" font-family="Times,serif" font-size="14.00" fill="#000000">rescue.target</text>
</g>
<!-- shutdown.target&#45;&gt;rescue.target -->
<g id="edge35" class="edge">
<title>shutdown.target&#45;&gt;rescue.target</title>
<path fill="none" stroke="#00ff00" d="M994.0982,-433.3809C1008.1526,-424.549 1023.7342,-412.1367 1032,-396 1039.2944,-381.7595 1036.2439,-375.4269 1032,-360 1021.6564,-322.3999 996.8366,-284.682 980.4975,-260.4508"/>
<polygon fill="#00ff00" stroke="#00ff00" points="983.3979,-258.4918 974.9041,-252.1589 977.5948,-262.4064 983.3979,-258.4918"/>
</g>
<!-- getty.target -->
<g id="node8" class="node">
<title>getty.target</title>
<ellipse fill="none" stroke="#000000" cx="618" cy="-234" rx="50.8918" ry="18"/>
<text text-anchor="middle" x="618" y="-230.3" font-family="Times,serif" font-size="14.00" fill="#000000">getty.target</text>
</g>
<!-- shutdown.target&#45;&gt;getty.target -->
<g id="edge38" class="edge">
<title>shutdown.target&#45;&gt;getty.target</title>
<path fill="none" stroke="#00ff00" d="M898.374,-448.9573C748.4959,-445.8998 399.2231,-434.5763 364,-396 297.5682,-323.2439 470.967,-268.0326 563.8929,-245.3257"/>
<polygon fill="#00ff00" stroke="#00ff00" points="564.8048,-248.7064 573.7147,-242.9738 563.1746,-241.8989 564.8048,-248.7064"/>
</g>
<!-- sysinit.target -->
<g id="node10" class="node">
<title>sysinit.target</title>
<ellipse fill="none" stroke="#000000" cx="966" cy="-162" rx="55.7903" ry="18"/>
<text text-anchor="middle" x="966" y="-158.3" font-family="Times,serif" font-size="14.00" fill="#000000">sysinit.target</text>
</g>
<!-- shutdown.target&#45;&gt;sysinit.target -->
<g id="edge31" class="edge">
<title>shutdown.target&#45;&gt;sysinit.target</title>
<path fill="none" stroke="#00ff00" d="M1007.0901,-435.6431C1025.6728,-427.3453 1045.8312,-414.7243 1057,-396 1065.1964,-382.2589 1058.9029,-375.8864 1057,-360 1049.1666,-294.6042 1056.8742,-271.8728 1022,-216 1014.6445,-204.2156 1003.8379,-193.7612 993.5947,-185.265"/>
<polygon fill="#00ff00" stroke="#00ff00" points="995.581,-182.3727 985.5773,-178.8831 991.2214,-187.8494 995.581,-182.3727"/>
</g>
<!-- getty&#45;pre.target -->
<g id="node11" class="node">
<title>getty&#45;pre.target</title>
<ellipse fill="none" stroke="#000000" cx="447" cy="-378" rx="64.9885" ry="18"/>
<text text-anchor="middle" x="447" y="-374.3" font-family="Times,serif" font-size="14.00" fill="#000000">getty&#45;pre.target</text>
</g>
<!-- shutdown.target&#45;&gt;getty&#45;pre.target -->
<g id="edge32" class="edge">
<title>shutdown.target&#45;&gt;getty&#45;pre.target</title>
<path fill="none" stroke="#00ff00" d="M900.7179,-445.0398C812.0147,-437.3776 649.0616,-420.8962 512,-396 508.1583,-395.3022 504.2182,-394.5258 500.2673,-393.6984"/>
<polygon fill="#00ff00" stroke="#00ff00" points="500.9918,-390.2741 490.4743,-391.5518 499.493,-397.1118 500.9918,-390.2741"/>
</g>
<!-- time&#45;sync.target -->
<g id="node12" class="node">
<title>time&#45;sync.target</title>
<ellipse fill="none" stroke="#000000" cx="598" cy="-378" rx="68.4888" ry="18"/>
<text text-anchor="middle" x="598" y="-374.3" font-family="Times,serif" font-size="14.00" fill="#000000">time&#45;sync.target</text>
</g>
<!-- shutdown.target&#45;&gt;time&#45;sync.target -->
<g id="edge37" class="edge">
<title>shutdown.target&#45;&gt;time&#45;sync.target</title>
<path fill="none" stroke="#00ff00" d="M907.9248,-440.749C848.1754,-430.3404 752.814,-412.6995 671,-396 666.2517,-395.0308 661.3535,-394.0097 656.4443,-392.9666"/>
<polygon fill="#00ff00" stroke="#00ff00" points="656.9088,-389.4865 646.3962,-390.8039 655.4359,-396.3298 656.9088,-389.4865"/>
</g>
<!-- emergency.target -->
<g id="node13" class="node">
<title>emergency.target</title>
<ellipse fill="none" stroke="#000000" cx="209" cy="-90" rx="72.2875" ry="18"/>
<text text-anchor="middle" x="209" y="-86.3" font-family="Times,serif" font-size="14.00" fill="#000000">emergency.target</text>
</g>
<!-- shutdown.target&#45;&gt;emergency.target -->
<g id="edge39" class="edge">
<title>shutdown.target&#45;&gt;emergency.target</title>
<path fill="none" stroke="#00ff00" d="M898.4613,-448.9499C703.4919,-445.4204 149.4845,-432.1099 77,-396 29.8814,-372.5267 0,-358.6418 0,-306 0,-306 0,-306 0,-234 0,-187.1222 18.827,-173.8168 55,-144 79.0122,-124.2072 110.9835,-111.2699 139.6281,-103.0367"/>
<polygon fill="#00ff00" stroke="#00ff00" points="140.8756,-106.3244 149.6027,-100.3172 139.0342,-99.571 140.8756,-106.3244"/>
</g>
<!-- network.target -->
<g id="node14" class="node">
<title>network.target</title>
<ellipse fill="none" stroke="#000000" cx="1692" cy="-306" rx="61.99" ry="18"/>
<text text-anchor="middle" x="1692" y="-302.3" font-family="Times,serif" font-size="14.00" fill="#000000">network.target</text>
</g>
<!-- shutdown.target&#45;&gt;network.target -->
<g id="edge36" class="edge">
<title>shutdown.target&#45;&gt;network.target</title>
<path fill="none" stroke="#00ff00" d="M1032.9212,-447.4356C1210.1435,-440.5416 1679.2436,-420.4655 1702,-396 1717.5381,-379.2948 1709.8167,-353.2059 1701.5212,-333.409"/>
<polygon fill="#00ff00" stroke="#00ff00" points="1704.6078,-331.7332 1697.3769,-323.9895 1698.2005,-334.5522 1704.6078,-331.7332"/>
</g>
<!-- nss&#45;lookup.target -->
<g id="node15" class="node">
<title>nss&#45;lookup.target</title>
<ellipse fill="none" stroke="#000000" cx="811" cy="-378" rx="71.4873" ry="18"/>
<text text-anchor="middle" x="811" y="-374.3" font-family="Times,serif" font-size="14.00" fill="#000000">nss&#45;lookup.target</text>
</g>
<!-- shutdown.target&#45;&gt;nss&#45;lookup.target -->
<g id="edge27" class="edge">
<title>shutdown.target&#45;&gt;nss&#45;lookup.target</title>
<path fill="none" stroke="#00ff00" d="M927.8925,-434.9064C904.1127,-424.4587 873.6891,-410.4157 849.7894,-398.8943"/>
<polygon fill="#00ff00" stroke="#00ff00" points="851.1717,-395.6747 840.6475,-394.4537 848.1132,-401.9712 851.1717,-395.6747"/>
</g>
<!-- local&#45;fs&#45;pre.target -->
<g id="node16" class="node">
<title>local&#45;fs&#45;pre.target</title>
<ellipse fill="none" stroke="#000000" cx="1854" cy="-18" rx="73.387" ry="18"/>
<text text-anchor="middle" x="1854" y="-14.3" font-family="Times,serif" font-size="14.00" fill="#000000">local&#45;fs&#45;pre.target</text>
</g>
<!-- shutdown.target&#45;&gt;local&#45;fs&#45;pre.target -->
<g id="edge21" class="edge">
<title>shutdown.target&#45;&gt;local&#45;fs&#45;pre.target</title>
<path fill="none" stroke="#00ff00" d="M1032.9853,-447.578C1220.6617,-440.7173 1739.3211,-420.0804 1767,-396 1870.6237,-305.8485 1858.3124,-117.7248 1853.9086,-46.3174"/>
<polygon fill="#00ff00" stroke="#00ff00" points="1857.3988,-46.046 1853.3097,-36.2721 1850.4112,-46.4627 1857.3988,-46.046"/>
</g>
<!-- sockets.target -->
<g id="node17" class="node">
<title>sockets.target</title>
<ellipse fill="none" stroke="#000000" cx="283" cy="-162" rx="59.2899" ry="18"/>
<text text-anchor="middle" x="283" y="-158.3" font-family="Times,serif" font-size="14.00" fill="#000000">sockets.target</text>
</g>
<!-- shutdown.target&#45;&gt;sockets.target -->
<g id="edge24" class="edge">
<title>shutdown.target&#45;&gt;sockets.target</title>
<path fill="none" stroke="#00ff00" d="M898.2048,-449.2826C737.0964,-446.8897 342.0133,-436.8265 300,-396 244.1705,-341.7475 257.0203,-238.7055 270.9663,-189.4959"/>
<polygon fill="#00ff00" stroke="#00ff00" points="274.3389,-190.4362 273.9346,-179.8491 267.6484,-188.3776 274.3389,-190.4362"/>
</g>
<!-- graphical.target -->
<g id="node18" class="node">
<title>graphical.target</title>
<ellipse fill="none" stroke="#000000" cx="966" cy="-378" rx="65.7887" ry="18"/>
<text text-anchor="middle" x="966" y="-374.3" font-family="Times,serif" font-size="14.00" fill="#000000">graphical.target</text>
</g>
<!-- shutdown.target&#45;&gt;graphical.target -->
<g id="edge25" class="edge">
<title>shutdown.target&#45;&gt;graphical.target</title>
<path fill="none" stroke="#00ff00" d="M960.0476,-431.8314C959.2972,-424.131 959.0763,-414.9743 959.3849,-406.4166"/>
<polygon fill="#00ff00" stroke="#00ff00" points="962.8792,-406.6161 960.024,-396.4133 955.8935,-406.1697 962.8792,-406.6161"/>
</g>
<!-- network&#45;online.target -->
<g id="node19" class="node">
<title>network&#45;online.target</title>
<ellipse fill="none" stroke="#000000" cx="1615" cy="-378" rx="87.1846" ry="18"/>
<text text-anchor="middle" x="1615" y="-374.3" font-family="Times,serif" font-size="14.00" fill="#000000">network&#45;online.target</text>
</g>
<!-- shutdown.target&#45;&gt;network&#45;online.target -->
<g id="edge28" class="edge">
<title>shutdown.target&#45;&gt;network&#45;online.target</title>
<path fill="none" stroke="#00ff00" d="M1030.8521,-444.8088C1132.3062,-436.728 1334.3031,-419.5841 1505,-396 1515.4013,-394.5629 1526.3683,-392.8331 1537.1987,-391.0217"/>
<polygon fill="#00ff00" stroke="#00ff00" points="1537.8143,-394.4674 1547.0864,-389.3412 1536.6413,-387.5663 1537.8143,-394.4674"/>
</g>
<!-- slices.target -->
<g id="node20" class="node">
<title>slices.target</title>
<ellipse fill="none" stroke="#000000" cx="413" cy="-162" rx="52.7911" ry="18"/>
<text text-anchor="middle" x="413" y="-158.3" font-family="Times,serif" font-size="14.00" fill="#000000">slices.target</text>
</g>
<!-- shutdown.target&#45;&gt;slices.target -->
<g id="edge29" class="edge">
<title>shutdown.target&#45;&gt;slices.target</title>
<path fill="none" stroke="#00ff00" d="M898.2435,-449.3178C741.5118,-447.0217 364.8134,-437.1932 327,-396 272.6601,-336.8032 306.81,-287.232 344,-216 350.7849,-203.0044 362.0435,-191.6128 373.6008,-182.6842"/>
<polygon fill="#00ff00" stroke="#00ff00" points="375.9388,-185.3137 382.0094,-176.6304 371.8488,-179.6328 375.9388,-185.3137"/>
</g>
<!-- nss&#45;user&#45;lookup.target -->
<g id="node21" class="node">
<title>nss&#45;user&#45;lookup.target</title>
<ellipse fill="none" stroke="#000000" cx="1289" cy="-378" rx="89.0842" ry="18"/>
<text text-anchor="middle" x="1289" y="-374.3" font-family="Times,serif" font-size="14.00" fill="#000000">nss&#45;user&#45;lookup.target</text>
</g>
<!-- shutdown.target&#45;&gt;nss&#45;user&#45;lookup.target -->
<g id="edge30" class="edge">
<title>shutdown.target&#45;&gt;nss&#45;user&#45;lookup.target</title>
<path fill="none" stroke="#00ff00" d="M1015.9291,-437.7046C1069.5886,-425.3205 1155.2455,-406.1995 1216.3499,-392.947"/>
<polygon fill="#00ff00" stroke="#00ff00" points="1217.2833,-396.3261 1226.3169,-390.7904 1215.8029,-389.4844 1217.2833,-396.3261"/>
</g>
<!-- remote&#45;fs&#45;pre.target -->
<g id="node22" class="node">
<title>remote&#45;fs&#45;pre.target</title>
<ellipse fill="none" stroke="#000000" cx="1391" cy="-162" rx="81.4863" ry="18"/>
<text text-anchor="middle" x="1391" y="-158.3" font-family="Times,serif" font-size="14.00" fill="#000000">remote&#45;fs&#45;pre.target</text>
</g>
<!-- shutdown.target&#45;&gt;remote&#45;fs&#45;pre.target -->
<g id="edge34" class="edge">
<title>shutdown.target&#45;&gt;remote&#45;fs&#45;pre.target</title>
<path fill="none" stroke="#00ff00" d="M1032.1278,-446.0432C1147.0053,-438.7992 1373.3601,-421.7442 1399,-396 1455.7049,-339.0646 1438.281,-293.2052 1416,-216 1413.2771,-206.565 1408.3635,-197.1897 1403.4764,-188.9639"/>
<polygon fill="#00ff00" stroke="#00ff00" points="1406.3152,-186.899 1398.0881,-180.2232 1400.3564,-190.5724 1406.3152,-186.899"/>
</g>
<!-- cryptsetup.target -->
<g id="node23" class="node">
<title>cryptsetup.target</title>
<ellipse fill="none" stroke="#000000" cx="767" cy="-90" rx="69.5877" ry="18"/>
<text text-anchor="middle" x="767" y="-86.3" font-family="Times,serif" font-size="14.00" fill="#000000">cryptsetup.target</text>
</g>
<!-- shutdown.target&#45;&gt;cryptsetup.target -->
<g id="edge41" class="edge">
<title>shutdown.target&#45;&gt;cryptsetup.target</title>
<path fill="none" stroke="#00ff00" d="M898.3519,-448.526C741.0041,-444.4436 354.8585,-430.8967 231,-396 146.8167,-372.2817 56,-393.4607 56,-306 56,-306 56,-306 56,-234 56,-192.1089 51.2839,-170.1633 84,-144 129.9322,-107.2676 516.9985,-94.9532 687.2638,-91.337"/>
<polygon fill="#00ff00" stroke="#00ff00" points="687.4973,-94.833 697.4224,-91.1261 687.3519,-87.8345 687.4973,-94.833"/>
</g>
<!-- network&#45;pre.target&#45;&gt;shutdown.target -->
<g id="edge2" class="edge">
<title>network&#45;pre.target&#45;&gt;shutdown.target</title>
<path fill="none" stroke="#ff0000" d="M1728.3872,-248.9269C1745.4099,-257.7501 1762.9037,-270.6391 1772,-288 1794.8662,-331.6417 1786.1263,-366.0569 1747,-396 1692.324,-437.8431 1230.2636,-447.2992 1043.636,-449.4063"/>
<polygon fill="#ff0000" stroke="#ff0000" points="1043.5801,-445.9066 1033.6188,-449.5153 1043.6564,-452.9062 1043.5801,-445.9066"/>
</g>
<!-- paths.target&#45;&gt;shutdown.target -->
<g id="edge3" class="edge">
<title>paths.target&#45;&gt;shutdown.target</title>
<path fill="none" stroke="#ff0000" d="M162.1068,-180.0187C177.1698,-225.3935 211.3134,-344.4139 291,-396 340.4314,-428 721.579,-442.783 888.3676,-447.8544"/>
<polygon fill="#ff0000" stroke="#ff0000" points="888.4564,-451.3586 898.557,-448.1603 888.6665,-444.3617 888.4564,-451.3586"/>
</g>
<!-- multi&#45;user.target&#45;&gt;shutdown.target -->
<g id="edge10" class="edge">
<title>multi&#45;user.target&#45;&gt;shutdown.target</title>
<path fill="none" stroke="#ff0000" d="M709.9605,-323.9678C714.0805,-344.3915 719.8387,-377.311 740,-396 762.6987,-417.0412 837.5822,-431.7916 895.0564,-440.4983"/>
<polygon fill="#ff0000" stroke="#ff0000" points="894.8006,-443.9986 905.2055,-442.0013 895.8261,-437.0741 894.8006,-443.9986"/>
</g>
<!-- multi&#45;user.target&#45;&gt;basic.target -->
<g id="edge4" class="edge">
<title>multi&#45;user.target&#45;&gt;basic.target</title>
<path fill="none" stroke="#00ff00" d="M650.2836,-294.1913C597.0853,-281.4858 515.6727,-261.2978 463.3382,-247.8518"/>
<polygon fill="#00ff00" stroke="#00ff00" points="464.1544,-244.4479 453.5971,-245.3399 462.4064,-251.2261 464.1544,-244.4479"/>
</g>
<!-- multi&#45;user.target&#45;&gt;basic.target -->
<g id="edge7" class="edge">
<title>multi&#45;user.target&#45;&gt;basic.target</title>
<path fill="none" stroke="#000000" d="M655.1736,-292.7941C603.203,-279.4176 520.5362,-258.9086 466.4622,-245.9869"/>
<polygon fill="#000000" stroke="#000000" points="467.2507,-242.5769 456.712,-243.6659 465.6296,-249.3866 467.2507,-242.5769"/>
</g>
<!-- multi&#45;user.target&#45;&gt;rescue.target -->
<g id="edge5" class="edge">
<title>multi&#45;user.target&#45;&gt;rescue.target</title>
<path fill="none" stroke="#00ff00" d="M747.9514,-292.2029C793.2235,-279.3291 862.9648,-260.2405 911.3861,-247.4726"/>
<polygon fill="#00ff00" stroke="#00ff00" points="912.2924,-250.8533 921.0752,-244.9278 910.5142,-244.0829 912.2924,-250.8533"/>
</g>
<!-- multi&#45;user.target&#45;&gt;rescue.target -->
<g id="edge11" class="edge">
<title>multi&#45;user.target&#45;&gt;rescue.target</title>
<path fill="none" stroke="#ff0000" d="M753.7653,-293.5408C800.4079,-281.2791 869.0273,-262.5293 915.563,-249.3536"/>
<polygon fill="#ff0000" stroke="#ff0000" points="916.7707,-252.649 925.4327,-246.548 914.8567,-245.9157 916.7707,-252.649"/>
</g>
<!-- multi&#45;user.target&#45;&gt;getty.target -->
<g id="edge6" class="edge">
<title>multi&#45;user.target&#45;&gt;getty.target</title>
<path fill="none" stroke="#00ff00" d="M677.0163,-288.937C665.3053,-279.8352 651.6975,-268.4756 640.4355,-258.4519"/>
<polygon fill="#00ff00" stroke="#00ff00" points="642.4675,-255.5695 632.7103,-251.4407 637.7631,-260.753 642.4675,-255.5695"/>
</g>
<!-- multi&#45;user.target&#45;&gt;getty.target -->
<g id="edge9" class="edge">
<title>multi&#45;user.target&#45;&gt;getty.target</title>
<path fill="none" stroke="#a8a8a8" d="M687.9045,-288.2022C677.498,-278.569 663.4667,-266.5761 650.6494,-256.3222"/>
<polygon fill="#a8a8a8" stroke="#a8a8a8" points="652.4768,-253.3066 642.4523,-249.8773 648.1502,-258.8095 652.4768,-253.3066"/>
</g>
<!-- remote&#45;fs.target -->
<g id="node9" class="node">
<title>remote&#45;fs.target</title>
<ellipse fill="none" stroke="#000000" cx="1348" cy="-234" rx="67.6881" ry="18"/>
<text text-anchor="middle" x="1348" y="-230.3" font-family="Times,serif" font-size="14.00" fill="#000000">remote&#45;fs.target</text>
</g>
<!-- multi&#45;user.target&#45;&gt;remote&#45;fs.target -->
<g id="edge8" class="edge">
<title>multi&#45;user.target&#45;&gt;remote&#45;fs.target</title>
<path fill="none" stroke="#a8a8a8" d="M766.9064,-298.8663C887.5896,-285.3946 1148.2917,-256.293 1275.385,-242.1059"/>
<polygon fill="#a8a8a8" stroke="#a8a8a8" points="1275.8612,-245.5745 1285.4111,-240.9867 1275.0846,-238.6177 1275.8612,-245.5745"/>
</g>
<!-- basic.target&#45;&gt;shutdown.target -->
<g id="edge64" class="edge">
<title>basic.target&#45;&gt;shutdown.target</title>
<path fill="none" stroke="#ff0000" d="M401.5121,-251.6184C376.509,-284.0463 324.2907,-353.7248 363,-396 398.0086,-434.2336 732.7851,-445.5392 887.9071,-448.7662"/>
<polygon fill="#ff0000" stroke="#ff0000" points="888.2409,-452.2735 898.3094,-448.976 888.3821,-445.275 888.2409,-452.2735"/>
</g>
<!-- basic.target&#45;&gt;paths.target -->
<g id="edge55" class="edge">
<title>basic.target&#45;&gt;paths.target</title>
<path fill="none" stroke="#00ff00" d="M369.4242,-224.1754C327.2633,-213.5232 262.0416,-195.9086 206,-180 203.8424,-179.3875 201.6432,-178.7589 199.4269,-178.1206"/>
<polygon fill="#00ff00" stroke="#00ff00" points="200.258,-174.7173 189.6781,-175.2796 198.2995,-181.4377 200.258,-174.7173"/>
</g>
<!-- basic.target&#45;&gt;paths.target -->
<g id="edge61" class="edge">
<title>basic.target&#45;&gt;paths.target</title>
<path fill="none" stroke="#a8a8a8" d="M374.8063,-221.9335C336.5289,-211.1607 276.2712,-194.8383 224,-180 218.4201,-178.416 212.5617,-176.7242 206.6962,-175.0355"/>
<polygon fill="#a8a8a8" stroke="#a8a8a8" points="207.4437,-171.6088 196.8663,-172.2159 205.5137,-178.3375 207.4437,-171.6088"/>
</g>
<!-- basic.target&#45;&gt;sysinit.target -->
<g id="edge58" class="edge">
<title>basic.target&#45;&gt;sysinit.target</title>
<path fill="none" stroke="#00ff00" d="M460.8788,-227.2264C560.856,-213.7665 791.4255,-183.7377 903.1523,-169.6164"/>
<polygon fill="#00ff00" stroke="#00ff00" points="903.7777,-173.0653 913.2611,-168.3413 902.9016,-166.1203 903.7777,-173.0653"/>
</g>
<!-- basic.target&#45;&gt;sysinit.target -->
<g id="edge59" class="edge">
<title>basic.target&#45;&gt;sysinit.target</title>
<path fill="none" stroke="#000000" d="M461.6806,-228.1689C562.4932,-215.5078 793.5909,-185.4483 904.503,-170.6015"/>
<polygon fill="#000000" stroke="#000000" points="905.0856,-174.0548 914.5315,-169.2564 904.155,-167.1169 905.0856,-174.0548"/>
</g>
<!-- basic.target&#45;&gt;sockets.target -->
<g id="edge56" class="edge">
<title>basic.target&#45;&gt;sockets.target</title>
<path fill="none" stroke="#00ff00" d="M381.4787,-219.6028C361.6406,-209.3535 336.1974,-195.3972 316.0824,-183.7891"/>
<polygon fill="#00ff00" stroke="#00ff00" points="317.6564,-180.6554 307.2545,-178.6426 314.1309,-186.7028 317.6564,-180.6554"/>
</g>
<!-- basic.target&#45;&gt;sockets.target -->
<g id="edge62" class="edge">
<title>basic.target&#45;&gt;sockets.target</title>
<path fill="none" stroke="#a8a8a8" d="M389.566,-217.8418C371.5208,-207.176 346.2819,-193.1309 324.8421,-181.795"/>
<polygon fill="#a8a8a8" stroke="#a8a8a8" points="326.4006,-178.6603 315.9183,-177.1203 323.1524,-184.861 326.4006,-178.6603"/>
</g>
<!-- basic.target&#45;&gt;slices.target -->
<g id="edge57" class="edge">
<title>basic.target&#45;&gt;slices.target</title>
<path fill="none" stroke="#00ff00" d="M407.0476,-215.8314C406.2856,-208.0125 406.0696,-198.6923 406.3995,-190.0221"/>
<polygon fill="#00ff00" stroke="#00ff00" points="409.9004,-190.1239 407.0727,-179.9134 402.9159,-189.6587 409.9004,-190.1239"/>
</g>
<!-- basic.target&#45;&gt;slices.target -->
<g id="edge63" class="edge">
<title>basic.target&#45;&gt;slices.target</title>
<path fill="none" stroke="#a8a8a8" d="M418.9524,-215.8314C419.7144,-208.0125 419.9304,-198.6923 419.6005,-190.0221"/>
<polygon fill="#a8a8a8" stroke="#a8a8a8" points="423.0841,-189.6587 418.9273,-179.9134 416.0996,-190.1239 423.0841,-189.6587"/>
</g>
<!-- timers.target -->
<g id="node24" class="node">
<title>timers.target</title>
<ellipse fill="none" stroke="#000000" cx="688" cy="-162" rx="55.7903" ry="18"/>
<text text-anchor="middle" x="688" y="-158.3" font-family="Times,serif" font-size="14.00" fill="#000000">timers.target</text>
</g>
<!-- basic.target&#45;&gt;timers.target -->
<g id="edge60" class="edge">
<title>basic.target&#45;&gt;timers.target</title>
<path fill="none" stroke="#a8a8a8" d="M454.1703,-223.2209C502.1706,-210.6535 581.6459,-189.8454 634.4174,-176.0289"/>
<polygon fill="#a8a8a8" stroke="#a8a8a8" points="635.4849,-179.3675 644.2723,-173.4487 633.7119,-172.5957 635.4849,-179.3675"/>
</g>
<!-- rescue.target&#45;&gt;shutdown.target -->
<g id="edge14" class="edge">
<title>rescue.target&#45;&gt;shutdown.target</title>
<path fill="none" stroke="#ff0000" d="M986.35,-250.9595C1007.4749,-273.9383 1038.1835,-317.046 1050,-360 1054.2439,-375.4269 1057.2944,-381.7595 1050,-396 1042.6795,-410.2914 1029.6206,-421.6616 1015.891,-430.2104"/>
<polygon fill="#ff0000" stroke="#ff0000" points="1013.7498,-427.4041 1006.8254,-435.4231 1017.2392,-433.4725 1013.7498,-427.4041"/>
</g>
<!-- rescue.target&#45;&gt;sysinit.target -->
<g id="edge12" class="edge">
<title>rescue.target&#45;&gt;sysinit.target</title>
<path fill="none" stroke="#00ff00" d="M960.0476,-215.8314C959.2856,-208.0125 959.0696,-198.6923 959.3995,-190.0221"/>
<polygon fill="#00ff00" stroke="#00ff00" points="962.9004,-190.1239 960.0727,-179.9134 955.9159,-189.6587 962.9004,-190.1239"/>
</g>
<!-- rescue.target&#45;&gt;sysinit.target -->
<g id="edge13" class="edge">
<title>rescue.target&#45;&gt;sysinit.target</title>
<path fill="none" stroke="#000000" d="M971.9524,-215.8314C972.7144,-208.0125 972.9304,-198.6923 972.6005,-190.0221"/>
<polygon fill="#000000" stroke="#000000" points="976.0841,-189.6587 971.9273,-179.9134 969.0996,-190.1239 976.0841,-189.6587"/>
</g>
<!-- getty.target&#45;&gt;shutdown.target -->
<g id="edge44" class="edge">
<title>getty.target&#45;&gt;shutdown.target</title>
<path fill="none" stroke="#ff0000" d="M576.8232,-244.6174C492.6554,-266.8686 314.8668,-322.4757 382,-396 415.7079,-432.9169 737.0288,-444.8752 888.2022,-448.5154"/>
<polygon fill="#ff0000" stroke="#ff0000" points="888.2683,-452.0178 898.3477,-448.7533 888.4325,-445.0197 888.2683,-452.0178"/>
</g>
<!-- remote&#45;fs.target&#45;&gt;shutdown.target -->
<g id="edge43" class="edge">
<title>remote&#45;fs.target&#45;&gt;shutdown.target</title>
<path fill="none" stroke="#ff0000" d="M1361.149,-251.749C1383.6175,-284.3917 1423.5958,-354.4104 1387,-396 1364.6436,-421.4071 1157.5793,-438.1572 1042.4123,-445.5915"/>
<polygon fill="#ff0000" stroke="#ff0000" points="1042.0007,-442.1105 1032.2434,-446.2391 1042.4457,-449.0963 1042.0007,-442.1105"/>
</g>
<!-- remote&#45;fs.target&#45;&gt;remote&#45;fs&#45;pre.target -->
<g id="edge42" class="edge">
<title>remote&#45;fs.target&#45;&gt;remote&#45;fs&#45;pre.target</title>
<path fill="none" stroke="#00ff00" d="M1358.6292,-216.2022C1363.5535,-207.9569 1369.5103,-197.9828 1374.9645,-188.8501"/>
<polygon fill="#00ff00" stroke="#00ff00" points="1378.0718,-190.4732 1380.1944,-180.0931 1372.062,-186.884 1378.0718,-190.4732"/>
</g>
<!-- sysinit.target&#45;&gt;swap.target -->
<g id="edge48" class="edge">
<title>sysinit.target&#45;&gt;swap.target</title>
<path fill="none" stroke="#00ff00" d="M1021.386,-165.0712C1199.5336,-174.6975 1746.4839,-204.3324 1761,-216 1823.3894,-266.1465 1819.2149,-335.3311 1767,-396 1697.4832,-476.772 1571.2276,-505.8169 1496.2753,-516.226"/>
<polygon fill="#00ff00" stroke="#00ff00" points="1495.5073,-512.7968 1486.0509,-517.5745 1496.4227,-519.7367 1495.5073,-512.7968"/>
</g>
<!-- sysinit.target&#45;&gt;swap.target -->
<g id="edge51" class="edge">
<title>sysinit.target&#45;&gt;swap.target</title>
<path fill="none" stroke="#a8a8a8" d="M1021.5826,-164.6925C1202.6715,-173.8942 1764.2879,-204.175 1779,-216 1841.3894,-266.1465 1837.2149,-335.3311 1785,-396 1711.9023,-480.9326 1576.0699,-508.6719 1497.0642,-517.6907"/>
<polygon fill="#a8a8a8" stroke="#a8a8a8" points="1496.346,-514.2476 1486.777,-518.7957 1497.0937,-521.2076 1496.346,-514.2476"/>
</g>
<!-- sysinit.target&#45;&gt;shutdown.target -->
<g id="edge54" class="edge">
<title>sysinit.target&#45;&gt;shutdown.target</title>
<path fill="none" stroke="#ff0000" d="M998.5689,-176.8299C1013.5525,-186.3589 1029.9791,-199.9452 1040,-216 1074.8742,-271.8728 1067.1666,-294.6042 1075,-360 1076.9029,-375.8864 1083.1964,-382.2589 1075,-396 1064.3595,-413.8387 1045.5597,-426.1377 1026.4847,-434.4365"/>
<polygon fill="#ff0000" stroke="#ff0000" points="1025.106,-431.2184 1017.1331,-438.1958 1027.7169,-437.7133 1025.106,-431.2184"/>
</g>
<!-- sysinit.target&#45;&gt;emergency.target -->
<g id="edge47" class="edge">
<title>sysinit.target&#45;&gt;emergency.target</title>
<path fill="none" stroke="#00ff00" d="M911.8639,-157.1921C779.5286,-144.9795 439.6384,-112.677 286.1672,-97.7563"/>
<polygon fill="#00ff00" stroke="#00ff00" points="286.1803,-94.2412 275.8883,-96.7558 285.5021,-101.2082 286.1803,-94.2412"/>
</g>
<!-- sysinit.target&#45;&gt;emergency.target -->
<g id="edge53" class="edge">
<title>sysinit.target&#45;&gt;emergency.target</title>
<path fill="none" stroke="#ff0000" d="M912.5738,-156.5588C781.1093,-143.6929 441.7742,-111.4041 287.4306,-97.0586"/>
<polygon fill="#ff0000" stroke="#ff0000" points="287.37,-93.538 277.0893,-96.0986 286.723,-100.5081 287.37,-93.538"/>
</g>
<!-- sysinit.target&#45;&gt;cryptsetup.target -->
<g id="edge49" class="edge">
<title>sysinit.target&#45;&gt;cryptsetup.target</title>
<path fill="none" stroke="#00ff00" d="M925.5894,-149.2936C893.0607,-138.1235 847.4502,-121.7102 813.4368,-108.9827"/>
<polygon fill="#00ff00" stroke="#00ff00" points="814.3189,-105.5751 803.7269,-105.3299 811.8542,-112.1269 814.3189,-105.5751"/>
</g>
<!-- sysinit.target&#45;&gt;cryptsetup.target -->
<g id="edge50" class="edge">
<title>sysinit.target&#45;&gt;cryptsetup.target</title>
<path fill="none" stroke="#a8a8a8" d="M931.734,-147.6028C901.2048,-136.0118 856.1794,-119.6796 820.865,-107.3645"/>
<polygon fill="#a8a8a8" stroke="#a8a8a8" points="821.7769,-103.9762 811.1821,-104.0048 819.4823,-110.5895 821.7769,-103.9762"/>
</g>
<!-- local&#45;fs.target -->
<g id="node25" class="node">
<title>local&#45;fs.target</title>
<ellipse fill="none" stroke="#000000" cx="1307" cy="-90" rx="59.5901" ry="18"/>
<text text-anchor="middle" x="1307" y="-86.3" font-family="Times,serif" font-size="14.00" fill="#000000">local&#45;fs.target</text>
</g>
<!-- sysinit.target&#45;&gt;local&#45;fs.target -->
<g id="edge46" class="edge">
<title>sysinit.target&#45;&gt;local&#45;fs.target</title>
<path fill="none" stroke="#00ff00" d="M1011.3603,-151.3762C1071.8527,-138.1118 1178.9025,-115.4958 1246.2883,-101.7333"/>
<polygon fill="#00ff00" stroke="#00ff00" points="1247.2402,-105.1114 1256.3407,-99.6863 1245.8434,-98.2521 1247.2402,-105.1114"/>
</g>
<!-- sysinit.target&#45;&gt;local&#45;fs.target -->
<g id="edge52" class="edge">
<title>sysinit.target&#45;&gt;local&#45;fs.target</title>
<path fill="none" stroke="#a8a8a8" d="M1014.222,-152.808C1076.2402,-140.2412 1183.6044,-117.6198 1249.7061,-103.2306"/>
<polygon fill="#a8a8a8" stroke="#a8a8a8" points="1250.5246,-106.6344 1259.5481,-101.0821 1249.0317,-99.7955 1250.5246,-106.6344"/>
</g>
<!-- getty&#45;pre.target&#45;&gt;shutdown.target -->
<g id="edge15" class="edge">
<title>getty&#45;pre.target&#45;&gt;shutdown.target</title>
<path fill="none" stroke="#ff0000" d="M498.2051,-389.2384C508.7417,-391.7045 519.7229,-394.1332 530,-396 656.5016,-418.9781 805.0586,-434.788 892.1009,-443.1119"/>
<polygon fill="#ff0000" stroke="#ff0000" points="891.8594,-446.6047 902.1454,-444.0654 892.521,-439.636 891.8594,-446.6047"/>
</g>
<!-- time&#45;sync.target&#45;&gt;shutdown.target -->
<g id="edge16" class="edge">
<title>time&#45;sync.target&#45;&gt;shutdown.target</title>
<path fill="none" stroke="#ff0000" d="M653.5072,-388.5186C665.2835,-391.0358 677.5755,-393.6681 689,-396 761.942,-410.8886 845.6525,-426.5255 901.8622,-437.1181"/>
<polygon fill="#ff0000" stroke="#ff0000" points="901.5534,-440.6216 912.029,-439.036 902.8511,-433.7429 901.5534,-440.6216"/>
</g>
<!-- emergency.target&#45;&gt;shutdown.target -->
<g id="edge17" class="edge">
<title>emergency.target&#45;&gt;shutdown.target</title>
<path fill="none" stroke="#ff0000" d="M157.1156,-102.6861C129.9005,-110.901 97.3559,-123.9238 73,-144 36.827,-173.8168 18,-187.1222 18,-234 18,-306 18,-306 18,-306 18,-358.6418 47.8814,-372.5267 95,-396 165.2358,-430.9897 687.5807,-444.5726 888.0526,-448.5928"/>
<polygon fill="#ff0000" stroke="#ff0000" points="888.1461,-452.0952 898.2135,-448.7938 888.2847,-445.0966 888.1461,-452.0952"/>
</g>
<!-- network.target&#45;&gt;shutdown.target -->
<g id="edge19" class="edge">
<title>network.target&#45;&gt;shutdown.target</title>
<path fill="none" stroke="#ff0000" d="M1709.871,-323.2714C1724.2129,-343.3459 1738.3808,-376.2386 1720,-396 1697.316,-420.3877 1231.1221,-440.4139 1043.3138,-447.3694"/>
<polygon fill="#ff0000" stroke="#ff0000" points="1043.0993,-443.8748 1033.2347,-447.74 1043.3565,-450.8701 1043.0993,-443.8748"/>
</g>
<!-- network.target&#45;&gt;network&#45;pre.target -->
<g id="edge18" class="edge">
<title>network.target&#45;&gt;network&#45;pre.target</title>
<path fill="none" stroke="#00ff00" d="M1690.2336,-287.8314C1689.485,-280.131 1688.5947,-270.9743 1687.7627,-262.4166"/>
<polygon fill="#00ff00" stroke="#00ff00" points="1691.2415,-262.0276 1686.7902,-252.4133 1684.2744,-262.7051 1691.2415,-262.0276"/>
</g>
<!-- nss&#45;lookup.target&#45;&gt;shutdown.target -->
<g id="edge20" class="edge">
<title>nss&#45;lookup.target&#45;&gt;shutdown.target</title>
<path fill="none" stroke="#ff0000" d="M849.5513,-393.2886C873.358,-403.7566 903.6966,-417.7654 927.4902,-429.2405"/>
<polygon fill="#ff0000" stroke="#ff0000" points="926.0649,-432.4392 936.5889,-433.6621 929.1245,-426.1432 926.0649,-432.4392"/>
</g>
<!-- local&#45;fs&#45;pre.target&#45;&gt;shutdown.target -->
<g id="edge65" class="edge">
<title>local&#45;fs&#45;pre.target&#45;&gt;shutdown.target</title>
<path fill="none" stroke="#ff0000" d="M1860.5724,-36.2721C1874.7428,-98.1521 1893.9432,-301.2206 1785,-396 1757.4185,-419.9956 1242.3073,-440.5719 1043.3919,-447.5051"/>
<polygon fill="#ff0000" stroke="#ff0000" points="1043.1801,-444.0102 1033.3073,-447.8543 1043.4224,-451.006 1043.1801,-444.0102"/>
</g>
<!-- sockets.target&#45;&gt;shutdown.target -->
<g id="edge67" class="edge">
<title>sockets.target&#45;&gt;shutdown.target</title>
<path fill="none" stroke="#ff0000" d="M282.7845,-180.1735C277.1031,-224.3589 258.3459,-338.031 318,-396 358.3577,-435.2177 724.5075,-446.0488 887.942,-448.9626"/>
<polygon fill="#ff0000" stroke="#ff0000" points="888.3495,-452.4701 898.4084,-449.1433 888.4704,-445.4711 888.3495,-452.4701"/>
</g>
<!-- graphical.target&#45;&gt;shutdown.target -->
<g id="edge76" class="edge">
<title>graphical.target&#45;&gt;shutdown.target</title>
<path fill="none" stroke="#ff0000" d="M971.976,-396.4133C972.7071,-404.0593 972.9203,-413.1084 972.6155,-421.5726"/>
<polygon fill="#ff0000" stroke="#ff0000" points="969.1048,-421.6264 971.9524,-431.8314 976.0902,-422.078 969.1048,-421.6264"/>
</g>
<!-- graphical.target&#45;&gt;multi&#45;user.target -->
<g id="edge73" class="edge">
<title>graphical.target&#45;&gt;multi&#45;user.target</title>
<path fill="none" stroke="#00ff00" d="M916.788,-365.9488C871.5188,-354.0639 804.6273,-335.8056 757.7084,-322.5611"/>
<polygon fill="#00ff00" stroke="#00ff00" points="758.5899,-319.1732 748.0146,-319.8151 756.682,-325.9082 758.5899,-319.1732"/>
</g>
<!-- graphical.target&#45;&gt;multi&#45;user.target -->
<g id="edge75" class="edge">
<title>graphical.target&#45;&gt;multi&#45;user.target</title>
<path fill="none" stroke="#000000" d="M922.2399,-364.5418C878.7646,-352.1663 811.9045,-333.8438 763.402,-321.002"/>
<polygon fill="#000000" stroke="#000000" points="764.2146,-317.5966 753.6525,-318.4296 762.4287,-324.365 764.2146,-317.5966"/>
</g>
<!-- graphical.target&#45;&gt;rescue.target -->
<g id="edge74" class="edge">
<title>graphical.target&#45;&gt;rescue.target</title>
<path fill="none" stroke="#00ff00" d="M961.3268,-359.7623C958.867,-335.201 958.5923,-291.2474 960.5026,-262.3541"/>
<polygon fill="#00ff00" stroke="#00ff00" points="964.0152,-262.3416 961.3417,-252.0896 957.0385,-261.7712 964.0152,-262.3416"/>
</g>
<!-- graphical.target&#45;&gt;rescue.target -->
<g id="edge77" class="edge">
<title>graphical.target&#45;&gt;rescue.target</title>
<path fill="none" stroke="#ff0000" d="M970.6732,-359.7623C973.133,-335.201 973.4077,-291.2474 971.4974,-262.3541"/>
<polygon fill="#ff0000" stroke="#ff0000" points="974.9615,-261.7712 970.6583,-252.0896 967.9848,-262.3416 974.9615,-261.7712"/>
</g>
<!-- network&#45;online.target&#45;&gt;shutdown.target -->
<g id="edge72" class="edge">
<title>network&#45;online.target&#45;&gt;shutdown.target</title>
<path fill="none" stroke="#ff0000" d="M1554.7341,-391.0634C1544.1997,-392.8597 1533.3214,-394.574 1523,-396 1351.9036,-419.6393 1149.3605,-436.8082 1041.814,-444.8654"/>
<polygon fill="#ff0000" stroke="#ff0000" points="1041.4202,-441.3849 1031.7071,-445.6165 1041.9391,-448.3656 1041.4202,-441.3849"/>
</g>
<!-- network&#45;online.target&#45;&gt;network.target -->
<g id="edge71" class="edge">
<title>network&#45;online.target&#45;&gt;network.target</title>
<path fill="none" stroke="#00ff00" d="M1634.0337,-360.2022C1643.7096,-351.1546 1655.6117,-340.0255 1666.1082,-330.2105"/>
<polygon fill="#00ff00" stroke="#00ff00" points="1668.5372,-332.731 1673.4509,-323.3446 1663.7562,-327.6181 1668.5372,-332.731"/>
</g>
<!-- slices.target&#45;&gt;shutdown.target -->
<g id="edge70" class="edge">
<title>slices.target&#45;&gt;shutdown.target</title>
<path fill="none" stroke="#ff0000" d="M394.854,-178.906C383.4532,-188.2955 369.7832,-201.0925 362,-216 324.81,-287.232 290.6601,-336.8032 345,-396 381.2746,-435.5168 729.4139,-446.1698 888.0424,-448.9984"/>
<polygon fill="#ff0000" stroke="#ff0000" points="888.1528,-452.5007 898.2116,-449.1736 888.2735,-445.5018 888.1528,-452.5007"/>
</g>
<!-- nss&#45;user&#45;lookup.target&#45;&gt;shutdown.target -->
<g id="edge68" class="edge">
<title>nss&#45;user&#45;lookup.target&#45;&gt;shutdown.target</title>
<path fill="none" stroke="#ff0000" d="M1232.1833,-391.8817C1175.595,-404.888 1088.9968,-424.1832 1030.0143,-436.9222"/>
<polygon fill="#ff0000" stroke="#ff0000" points="1029.105,-433.5377 1020.0661,-439.0647 1030.5789,-440.3808 1029.105,-433.5377"/>
</g>
<!-- remote&#45;fs&#45;pre.target&#45;&gt;shutdown.target -->
<g id="edge69" class="edge">
<title>remote&#45;fs&#45;pre.target&#45;&gt;shutdown.target</title>
<path fill="none" stroke="#ff0000" d="M1413.7357,-179.7378C1422.0948,-189.7194 1430.1909,-202.8013 1434,-216 1456.281,-293.2052 1473.7049,-339.0646 1417,-396 1391.3316,-421.7728 1164.5018,-438.8371 1042.5924,-446.0673"/>
<polygon fill="#ff0000" stroke="#ff0000" points="1042.3449,-442.5757 1032.5664,-446.6537 1042.7537,-449.5638 1042.3449,-442.5757"/>
</g>
<!-- cryptsetup.target&#45;&gt;shutdown.target -->
<g id="edge66" class="edge">
<title>cryptsetup.target&#45;&gt;shutdown.target</title>
<path fill="none" stroke="#ff0000" d="M697.4587,-91.3184C536.3283,-94.911 148.0111,-107.2046 102,-144 69.2839,-170.1633 74,-192.1089 74,-234 74,-306 74,-306 74,-306 74,-393.4607 164.8167,-372.2817 249,-396 367.8911,-429.4971 728.4528,-443.3226 888.3364,-447.9884"/>
<polygon fill="#ff0000" stroke="#ff0000" points="888.4763,-451.4938 898.5727,-448.2826 888.6774,-444.4967 888.4763,-451.4938"/>
</g>
<!-- timers.target&#45;&gt;shutdown.target -->
<g id="edge45" class="edge">
<title>timers.target&#45;&gt;shutdown.target</title>
<path fill="none" stroke="#ff0000" d="M741.8798,-167.1954C833.0776,-176.4669 1010.048,-196.7047 1031,-216 1098.9887,-278.6127 1094.7709,-347.766 1066,-396 1056.1073,-412.585 1039.1618,-424.3816 1022.0025,-432.627"/>
<polygon fill="#ff0000" stroke="#ff0000" points="1020.2102,-429.5932 1012.491,-436.8502 1023.051,-435.9909 1020.2102,-429.5932"/>
</g>
<!-- local&#45;fs.target&#45;&gt;shutdown.target -->
<g id="edge79" class="edge">
<title>local&#45;fs.target&#45;&gt;shutdown.target</title>
<path fill="none" stroke="#ff0000" d="M1357.4366,-99.7471C1402.6219,-109.495 1464.2769,-125.6471 1481,-144 1508.5348,-174.2183 1500,-193.1184 1500,-234 1500,-306 1500,-306 1500,-306 1500,-353.1111 1483.8312,-370.8418 1444,-396 1410.7866,-416.9783 1168.1829,-436.2898 1041.9254,-445.0524"/>
<polygon fill="#ff0000" stroke="#ff0000" points="1041.666,-441.5618 1031.9302,-445.7409 1042.1471,-448.5453 1041.666,-441.5618"/>
</g>
<!-- local&#45;fs.target&#45;&gt;local&#45;fs&#45;pre.target -->
<g id="edge78" class="edge">
<title>local&#45;fs.target&#45;&gt;local&#45;fs&#45;pre.target</title>
<path fill="none" stroke="#00ff00" d="M1361.9529,-82.7667C1460.4728,-69.7988 1667.2603,-42.58 1778.8228,-27.8954"/>
<polygon fill="#00ff00" stroke="#00ff00" points="1779.5289,-31.3327 1788.9866,-26.5575 1778.6154,-24.3925 1779.5289,-31.3327"/>
</g>
</g>
</svg>
